<svg width="21" height="20" viewBox="0 0 21 20" fill="none" xmlns="http://www.w3.org/2000/svg">
<path d="M11 15.8217C11 15.5456 10.7761 15.3217 10.5 15.3217C10.2238 15.3217 9.99996 15.5456 9.99996 15.8217H11ZM9.99996 15.8334C9.99996 16.1095 10.2238 16.3334 10.5 16.3334C10.7761 16.3334 11 16.1095 11 15.8334H9.99996ZM9.99996 12.3333C9.99996 12.6095 10.2238 12.8333 10.5 12.8333C10.7761 12.8333 11 12.6095 11 12.3333H9.99996ZM6.5172 6.58193C6.4453 6.84855 6.60315 7.12297 6.86977 7.19487C7.13639 7.26677 7.41081 7.10892 7.48271 6.8423L6.5172 6.58193ZM9.99996 15.8217V15.8334H11V15.8217H9.99996ZM13.5 7.5606C13.5 8.48198 12.8769 8.95411 11.9683 9.57362C11.1424 10.1367 9.99996 10.8613 9.99996 12.3333H11C11 11.472 11.6075 11.03 12.5316 10.3999C13.373 9.82619 14.5 9.07862 14.5 7.5606H13.5ZM10.5 4.66666C12.1994 4.66666 13.5 5.97387 13.5 7.5606H14.5C14.5 5.39849 12.7283 3.66666 10.5 3.66666V4.66666ZM7.48271 6.8423C7.81406 5.61361 9.05098 4.66666 10.5 4.66666V3.66666C8.63501 3.66666 6.97537 4.88297 6.5172 6.58193L7.48271 6.8423ZM5.83329 1.16666H15.1666V0.166664H5.83329V1.16666ZM19.3333 5.33333V14.6667H20.3333V5.33333H19.3333ZM15.1666 18.8333H5.83329V19.8333H15.1666V18.8333ZM1.66663 14.6667V5.33333H0.666626V14.6667H1.66663ZM5.83329 18.8333C3.53211 18.8333 1.66663 16.9678 1.66663 14.6667H0.666626C0.666626 17.5201 2.97982 19.8333 5.83329 19.8333V18.8333ZM19.3333 14.6667C19.3333 16.9678 17.4678 18.8333 15.1666 18.8333V19.8333C18.0201 19.8333 20.3333 17.5201 20.3333 14.6667H19.3333ZM15.1666 1.16666C17.4678 1.16666 19.3333 3.03214 19.3333 5.33333H20.3333C20.3333 2.47986 18.0201 0.166664 15.1666 0.166664V1.16666ZM5.83329 0.166664C2.97982 0.166664 0.666626 2.47986 0.666626 5.33333H1.66663C1.66663 3.03214 3.53211 1.16666 5.83329 1.16666V0.166664Z" fill="#1F553E"/>
</svg>
