<svg width="19" height="22" viewBox="0 0 19 22" fill="none" xmlns="http://www.w3.org/2000/svg">
<path d="M6.09 12.51L12.92 16.49M12.91 5.51L6.09 9.49M18.5 4C18.5 5.65685 17.1569 7 15.5 7C13.8431 7 12.5 5.65685 12.5 4C12.5 2.34315 13.8431 1 15.5 1C17.1569 1 18.5 2.34315 18.5 4ZM6.5 11C6.5 12.6569 5.15685 14 3.5 14C1.84315 14 0.5 12.6569 0.5 11C0.5 9.34315 1.84315 8 3.5 8C5.15685 8 6.5 9.34315 6.5 11ZM18.5 18C18.5 19.6569 17.1569 21 15.5 21C13.8431 21 12.5 19.6569 12.5 18C12.5 16.3431 13.8431 15 15.5 15C17.1569 15 18.5 16.3431 18.5 18Z" stroke="#1F553E" stroke-linecap="round" stroke-linejoin="round"/>
</svg>
